<?xml version="1.0" encoding="UTF-8"?>
<svg xmlns="http://www.w3.org/2000/svg" xmlns:xlink="http://www.w3.org/1999/xlink" viewBox="0 0 96 96" width="96px" height="96px">
<g id="surface50024">
<path style=" stroke:none;fill-rule:nonzero;fill:rgb(20.392157%,28.627452%,36.862746%);fill-opacity:1;" d="M 76 88 L 24 88 L 24 8 L 76 8 C 80.398438 8 84 11.601562 84 16 L 84 80 C 84 84.398438 80.398438 88 76 88 Z M 76 88 "/>
<path style=" stroke:none;fill-rule:nonzero;fill:rgb(18.039216%,80.000001%,44.313726%);fill-opacity:1;" d="M 20 8 L 24 8 L 24 88 L 20 88 C 15.601562 88 12 84.398438 12 80 L 12 16 C 12 11.601562 15.601562 8 20 8 Z M 20 8 "/>
<path style=" stroke:none;fill-rule:nonzero;fill:rgb(90.588236%,29.803923%,23.529412%);fill-opacity:1;" d="M 52 32 C 47.582031 32 44 35.582031 44 40 C 44 44.417969 47.582031 48 52 48 C 56.417969 48 60 44.417969 60 40 C 60 35.582031 56.417969 32 52 32 Z M 66 60 C 66 60 62.199219 52 52 52 C 41.800781 52 38 60 38 60 L 38 64 L 66 64 Z M 66 60 "/>
</g>
</svg>
